<?xml version="1.0" encoding="UTF-8"?><svg id="uuid-97c95c32-6c04-42ba-9fef-b6534fe2c6a7" xmlns="http://www.w3.org/2000/svg" viewBox="0 0 377.6 79.13">
<title>ALDI Mobile logo - Brandlogos.net</title><path d="M31.36,78.55c-.48-2.12-1.43-5.88-1.91-7.42h-14.51c-.48,1.54-1.43,5.3-1.91,7.42H0c5.51-17.48,8.05-24.79,14.25-40.31h15.94c6.2,15.47,8.69,22.83,14.25,40.31h-13.08ZM16.79,62.4h10.86c-1.54-5.4-4.4-14.35-5.46-16.9-1.01,2.54-3.92,11.55-5.46,16.9h.05Z" style="fill:#00539b;"/><path d="M58.74,78.55c-6.78,0-10.49-3.87-10.49-10.86v-29.4h12.18v27.07c0,3.39.95,4.29,4.5,4.29h11.81l1.8,8.95h-19.86l.05-.05Z" style="fill:#00539b;"/><path d="M140.05,38.24h-12.18v40.31h12.18v-40.31Z" style="fill:#00539b;"/><path d="M83.42,78.55v-40.31h16.84c12.39,0,21.03,5.03,21.03,19.81s-6.94,20.45-20.5,20.45h-17.37v.05ZM95.61,69.81h3.44c7.47,0,10.43-3.34,10.43-11.76s-3.6-11.12-10.86-11.12h-3.02v22.88Z" style="fill:#00539b;"/><path d="M186.13,78.55l-1.8-24.47-5.77,17.69h-6.2l-5.93-17.69-1.69,24.47h-10.17l3.92-40.31h10.06l7.15,20.07,6.94-20.07h10.22l3.92,40.31h-10.65Z" style="fill:#00539b;"/><path d="M215.57,79.13c-9.32,0-15.47-3.71-15.47-16.53s6.14-16.53,15.47-16.53,15.47,3.71,15.47,16.53-6.14,16.53-15.47,16.53ZM215.57,52.17c-3.92,0-5.14,2.91-5.14,10.38s1.22,10.38,5.14,10.38,5.14-2.91,5.14-10.38-1.22-10.38-5.14-10.38Z" style="fill:#00539b;"/><path d="M255.78,79.13c-3.92,0-7.26-1.38-10.01-3.5l-.85,2.91h-8.85v-44.02h10.06v16.47c3.02-3.02,7.04-4.98,10.65-4.98,5.19,0,10.65,3.87,10.65,16.63s-5.93,16.47-11.65,16.47ZM252.17,53.66c-2.01,0-4.61,1.8-6.04,3.71v12.77c1.69,1.22,3.87,2.28,5.77,2.28,3.34,0,5.14-2.12,5.14-9.53s-1.64-9.16-4.87-9.16v-.05Z" style="fill:#00539b;"/><path d="M277.44,42.9c-3.13,0-5.72-2.49-5.72-5.67s2.6-5.72,5.72-5.72,5.67,2.54,5.67,5.72-2.54,5.67-5.67,5.67ZM272.36,78.55v-31.89h10.06v31.89h-10.06Z" style="fill:#00539b;"/><path d="M287.82,78.55v-44.02h10.06v44.02h-10.06Z" style="fill:#00539b;"/><path d="M331.52,64.57h-19.39c.11,5.88,3.02,7.79,6.83,7.79s5.56-.53,8.95-2.22l2.07,5.93c-1.8,1.27-6.78,3.07-12.92,3.07s-15.15-3.97-15.15-16,7.04-17.11,15.15-17.11,14.57,5.03,14.57,16.31,0,1.64-.05,2.22h-.05ZM316.85,52.07c-2.01,0-4.61,1.17-4.71,7.26h9.16c-.11-6.57-2.49-7.26-4.45-7.26Z" style="fill:#00539b;"/><path d="M312.13,34.27c1.59-.26,3.23-.42,4.93-.42,7.73,0,14.41,2.65,19.23,7.63,3.44,3.55,7.52,10.01,7.52,20.87s0,1.48,0,2.22h4.82v-2.22c0-12.45-4.82-20.02-8.85-24.21-5.77-5.93-13.61-9.11-22.67-9.11s-3.34.11-4.93.32v4.87l-.05.05Z" style="fill:#d70000;"/><path d="M312.13,29.34c1.59-.21,3.23-.32,4.93-.32,9.11,0,16.95,3.12,22.67,9.11,4.03,4.18,8.85,11.76,8.85,24.21s0,1.48,0,2.22h4.82v-2.22c0-14.04-5.56-22.72-10.22-27.54-6.57-6.83-15.89-10.59-26.17-10.59s-3.28.11-4.93.32v4.87l.05-.05Z" style="fill:#ff7800;"/><path d="M312.13,24.47c1.59-.21,3.23-.32,4.93-.32,10.28,0,19.6,3.76,26.17,10.59,4.66,4.82,10.22,13.51,10.22,27.54s0,1.43,0,2.22h4.82v-2.22c0-15.68-6.3-25.48-11.55-30.93-7.52-7.79-18.06-12.08-29.66-12.08s-3.28.11-4.93.26v4.93Z" style="fill:#ffc800;"/><path d="M312.13,14.72c1.64-.16,3.28-.26,4.93-.26,12.92,0,24.68,4.82,33.11,13.51,5.88,6.09,12.92,17,12.92,34.27s0,1.43,0,2.22h4.82v-2.22c0-18.91-7.79-30.88-14.3-37.66-9.32-9.69-22.35-14.99-36.6-14.99s-3.28.05-4.93.21v4.87l.05.05Z" style="fill:#d70000;"/><path d="M312.13,9.9c1.64-.16,3.28-.21,4.93-.21,14.25,0,27.28,5.35,36.6,14.99,6.52,6.73,14.3,18.75,14.3,37.66s0,1.48,0,2.22h4.82v-2.22c0-20.5-8.53-33.63-15.62-41-10.28-10.65-24.52-16.47-40.1-16.47s-3.28.05-4.93.21v4.87-.05Z" style="fill:#ff7800;"/><path d="M312.13,5.03c1.64-.11,3.28-.21,4.93-.21,15.57,0,29.82,5.88,40.1,16.47,7.15,7.36,15.62,20.5,15.62,41s0,1.48,0,2.22h4.82v-2.22c0-22.14-9.27-36.34-17-44.39-11.18-11.55-26.64-17.9-43.54-17.9s-3.28.05-4.93.21v4.87-.05Z" style="fill:#ffc800;"/></svg>