<?xml version="1.0" encoding="UTF-8"?><svg id="uuid-18cefd87-807b-48d3-baa4-9859d2836917" xmlns="http://www.w3.org/2000/svg" viewBox="0 0 531.33 161.95">
<title>Apple Maps logo - Brandlogos.net</title><path id="uuid-0c701bd6-cfd4-4c81-931a-376688b80158" d="M73.89,21.27c4.07-4.91,7.03-11.78,7.03-18.64,0-.93-.08-1.86-.25-2.63-6.69.25-14.74,4.49-19.57,10.17-3.81,4.32-7.29,11.1-7.29,18.05,0,1.02.17,2.03.25,2.37.59.11,1.18.17,1.78.17,6.02,0,13.56-4.07,18.05-9.49ZM78.64,32.2c-10.08,0-18.3,6.1-23.47,6.1-5.59,0-12.96-5.76-21.69-5.76C16.86,32.54,0,46.27,0,72.2c0,16.1,6.27,33.13,13.98,44.15,6.61,9.32,12.37,16.95,20.68,16.95s11.86-5.51,22.12-5.51,12.71,5.34,21.86,5.34,15-8.3,20.68-16.44c6.36-9.32,8.98-18.47,9.15-18.9-.59-.17-17.8-7.2-17.8-26.95,0-17.12,13.56-24.83,14.32-25.42-8.98-12.88-22.63-13.22-26.35-13.22h0ZM256.71,132.37V10.09h-25.25l-37.45,93.3h-.68L155.87,10.09h-25.34v122.28h19.74V45.6h.59l35.34,86.77h14.91l35.34-86.77h.59v86.77h19.66ZM297.91,133.81c11.52,0,22.79-6.02,27.96-15.76h.42v14.32h20.34v-61.86c0-18.05-14.49-29.83-36.78-29.83s-37.2,12.03-38.13,28.81h19.57c1.36-7.46,7.71-12.29,17.71-12.29s16.78,5.42,16.78,14.83v6.44l-23.73,1.36c-21.86,1.36-34.15,10.93-34.15,26.86s12.63,27.12,30,27.12h0ZM304.27,117.88c-9.15,0-15.25-4.66-15.25-12.03s5.85-11.69,16.02-12.37l20.76-1.27v6.86c0,10.85-9.58,18.81-21.52,18.81ZM410.3,41.02c-13.05,0-23.22,6.61-28.3,17.03h-.42v-15.51h-20.59v119.4h21.1v-44.49h.42c4.91,10.08,15.08,16.35,28.13,16.35,22.54,0,36.95-17.71,36.95-46.35s-14.49-46.44-37.29-46.44ZM403.86,116.52c-13.13,0-21.86-11.44-21.95-29.07.08-17.46,8.81-29.07,21.95-29.07s22.12,11.36,22.12,29.07-8.47,29.07-22.12,29.07ZM456.93,68.31c0,13.3,8.64,21.78,25.85,25.59l14.91,3.3c9.41,2.12,12.63,5.17,12.63,10.59,0,6.69-6.36,10.93-16.61,10.93s-16.69-4.41-18.3-13.13h-20.76c1.69,17.37,15.59,28.56,39.06,28.56,22.03,0,37.62-11.44,37.62-28.39,0-13.05-7.2-20.25-25.85-24.4l-14.91-3.3c-9.41-2.12-13.13-5.68-13.13-10.85,0-6.61,6.19-11.02,15.51-11.02s15.76,5.17,16.61,13.3h19.66c-.51-17.03-14.41-28.81-36.27-28.81-21.69,0-36.01,11.19-36.01,27.62h0Z" style="fill-rule:evenodd;"/></svg>