<?xml version="1.0" encoding="UTF-8"?><svg id="uuid-48364ec8-240f-4a5b-9abe-7b5298f1e0d6" xmlns="http://www.w3.org/2000/svg" viewBox="0 0 481.71 260.88">
<title>JAC Motors logo - Brandlogos.net</title><path d="M133.2,2.63c-12.56,0-25.14-.01-37.7-.03-2.79,0-3.44.21-3.44,3.51v76.99c0,5.2-4.71,11.07-11.56,11.14l-23.78.26c-6.52.06-12.71-5.07-12.71-12.49v-7.53c0-1.49-.41-2.3-2.22-2.3H2.18c-1.66,0-2.18.67-2.18,2.44v9.64c0,17.69,16.15,36.93,38.45,36.93h57.81c23.5,0,40.27-17.31,40.27-38.99V6.11c0-2.95-.53-3.48-3.32-3.48" style="fill:red; fill-rule:evenodd;"/><path d="M401.87,0c36.36,0,67.26,17.06,79.05,40.86,2.22,4.48-.83,4.6-3.38,4.6h-42.74c-2.43,0-3.8-1.02-5.21-2.78-6.32-7.84-16.39-12.91-27.73-12.91-19.13,0-34.65,14.43-34.65,32.23s15.52,32.24,34.65,32.24c11.2,0,21.16-4.96,27.5-12.64,1.55-1.88,2.74-3.05,5.44-3.05h43.02c2.99,0,4.93.8,3.28,4.23-11.59,24.03-42.69,41.23-79.24,41.23-46.43,0-84.08-27.77-84.08-62.01S355.44,0,401.87,0" style="fill:red; fill-rule:evenodd;"/><path d="M228.9,42.82l-45.99,77.01c-.88,1.52-1.05,1.52-2.46,1.52h-41.13c-1.76,0-2.63-.77-1.4-3.24L204.48,8.69c2.79-4.56,4.47-5.59,9.02-5.59h35.22c5.3,0,6.24.45,9.13,5.24l65.7,108.63c2.46,4.38,2.63,4.38-3.33,4.38h-35.15c-4.74,0-5.47-.93-7.18-3.81l-9.42-15.93h-59.09c-3.69,0-5.09.58-3.51-2.66l11.96-20.41c1.58-3.24,2.1-3.04,6.15-3.04h28.76l-19.1-32.67c-1.4-3.05-3.35-2.85-4.76,0" style="fill:red; fill-rule:evenodd;"/><path d="M365.21,186.64v29h13.67c5.3,0,9.59-1.41,12.89-4.24,3.31-2.83,4.97-6.55,4.97-11.13,0-4.29-1.52-7.63-4.53-10.03-3.01-2.41-7.4-3.6-13.15-3.6h-13.85ZM419.15,259.5h-13.67l-14.89-22.82c-2.97-4.56-5.7-7.65-8.17-9.3-2.48-1.64-5.42-2.46-8.86-2.46h-8.34v34.58h-11.59v-82.15h27.36c8.73,0,15.57,1.92,20.51,5.78,4.95,3.85,7.41,9.25,7.41,16.18,0,11.39-6.64,18.78-19.94,22.15v.28c2.48.96,4.61,2.32,6.41,4.09,1.8,1.76,4.11,4.78,6.98,9.07l16.8,24.6ZM268.11,218.55c0,9.94,2.77,17.9,8.33,23.9,5.54,5.99,12.78,9,21.7,9,9.58,0,17.11-2.88,22.57-8.62,5.46-5.75,8.19-13.79,8.19-24.11s-2.68-18.79-8.02-24.55c-5.36-5.78-12.68-8.66-21.99-8.66s-16.58,3.04-22.25,9.13c-5.68,6.08-8.53,14.04-8.53,23.91M255.94,219.41c0-13.25,3.92-23.81,11.77-31.66,7.84-7.84,18.46-11.77,31.87-11.77,12.48,0,22.54,3.84,30.13,11.5,7.61,7.67,11.43,17.67,11.43,29.98,0,13.32-3.91,23.89-11.7,31.72-7.82,7.8-18.24,11.71-31.3,11.71s-22.97-3.84-30.66-11.52c-7.7-7.66-11.54-17.64-11.54-29.95M254.31,186.78h-25.89v72.72h-11.65v-72.72h-25.79v-9.43h63.34v9.43ZM114.64,218.55c0,9.94,2.77,17.9,8.33,23.9,5.53,5.99,12.78,9,21.7,9,9.58,0,17.11-2.88,22.57-8.62,5.46-5.75,8.19-13.79,8.19-24.11s-2.66-18.79-8.01-24.55c-5.36-5.78-12.68-8.66-21.99-8.66s-16.58,3.04-22.25,9.13c-5.68,6.08-8.53,14.04-8.53,23.91M102.48,219.41c0-13.25,3.91-23.81,11.77-31.66,7.83-7.84,18.46-11.77,31.87-11.77,12.48,0,22.52,3.84,30.12,11.5,7.62,7.67,11.43,17.67,11.43,29.98,0,13.32-3.92,23.89-11.7,31.72-7.82,7.8-18.24,11.71-31.3,11.71s-22.96-3.84-30.66-11.52c-7.69-7.66-11.53-17.64-11.53-29.95M81.19,259.5v-54.42c0-4.49.29-9.89.87-16.17h-.28c-1.01,3.95-1.9,6.72-2.67,8.27l-29.61,62.31h-6.43l-29.55-61.84c-.71-1.41-1.6-4.33-2.67-8.75h-.35c.39,3.82.6,9.36.6,16.64v53.95H0v-82.15h15.71l26.48,56.31c2,4.33,3.34,7.67,4,10.08h.39c2.02-5.05,3.42-8.49,4.23-10.28l26.96-56.12h14.94v82.15h-11.53ZM427.92,243.55c2.68,2.15,6.25,3.9,10.74,5.27,4.47,1.38,8.73,2.07,12.77,2.07,12.26,0,18.42-4,18.42-11.99,0-2.24-.66-4.25-1.99-6.05-1.32-1.8-3.12-3.37-5.42-4.77-2.29-1.38-6.62-3.49-12.94-6.35-8.77-3.99-14.56-7.71-17.34-11.14-2.8-3.45-4.18-7.36-4.18-11.77,0-6.65,2.91-11.93,8.76-15.82,5.84-3.9,13.21-5.84,22.1-5.84s15.08.95,19.15,2.89v11.26c-5.29-3.34-11.94-5.01-20-5.01-5.36,0-9.72,1.02-13.1,3.09-3.35,2.04-5.06,4.89-5.06,8.54,0,3.25,1.18,5.88,3.51,7.93,2.33,2.03,7.41,4.8,15.2,8.31,8.59,3.76,14.6,7.53,18.01,11.28,3.43,3.76,5.15,7.98,5.15,12.68,0,7.02-2.78,12.42-8.37,16.18-5.58,3.76-13.31,5.63-23.22,5.63-3.45,0-7.5-.44-12.12-1.33-4.6-.86-7.99-1.95-10.08-3.28v-11.79Z"/></svg>