<?xml version="1.0" encoding="UTF-8"?><svg id="uuid-ff2623db-8fc1-4666-acec-59f6c2bf1197" xmlns="http://www.w3.org/2000/svg" xmlns:xlink="http://www.w3.org/1999/xlink" viewBox="0 0 153.28 39.71">
<title>Tata AIA Life logo - Brandlogos.net</title><defs><mask id="uuid-188c5a22-c632-4427-a7b1-f21ec962f524" x="131.3" y="0" width="21.98" height="20.49" maskUnits="userSpaceOnUse"><g id="uuid-7e3fac87-f0fc-496d-ae40-074a56e81382"><path d="M131.3,0h21.98v20.49h-21.98V0Z" style="fill:#fff; fill-rule:evenodd;"/></g></mask><mask id="uuid-0ddb01e6-9f9d-4549-9e88-55622fad47c6" x="0" y="0" width="153.28" height="39.71" maskUnits="userSpaceOnUse"><g id="uuid-5a47b8cc-41af-4d25-bdb9-040e60e09b0f"><path d="M0,39.71h153.28V0H0v39.71Z" style="fill:#fff; fill-rule:evenodd;"/></g></mask></defs><path d="M119.89,20.5l-7.03-17.87S111.96-.01,108.89,0c-3.06-.02-3.96,2.62-3.96,2.62l-7.03,17.87h4.75l1.86-5.28c1.38.33,2.87.52,4.43.52s3.08-.19,4.46-.53l1.86,5.28h4.62ZM108.12,4.98s.31-.96.82-.99h.04c.51.02.82.99.82.99l2.28,6.47c-.99.25-2.04.38-3.14.38s-2.12-.13-3.1-.37l2.28-6.48Z" style="fill:#d62049; fill-rule:evenodd;"/><g style="mask:url(#uuid-188c5a22-c632-4427-a7b1-f21ec962f524);"><path d="M153.28,20.5l-7.02-17.87S145.36-.01,142.29,0c-3.07-.02-3.96,2.62-3.96,2.62l-7.03,17.87h4.75l1.86-5.28c1.38.33,2.87.52,4.43.52s3.07-.19,4.46-.53l1.86,5.28h4.62ZM141.51,4.98s.3-.96.82-.99h.04c.51.02.82.99.82.99l2.28,6.47c-.99.25-2.04.38-3.13.38s-2.13-.13-3.11-.37l2.29-6.48Z" style="fill:#d62049; fill-rule:evenodd;"/></g><g style="mask:url(#uuid-0ddb01e6-9f9d-4549-9e88-55622fad47c6);"><path d="M123.36,20.5h4.47V0h-4.47v20.49Z" style="fill:#d62049; fill-rule:evenodd;"/><path d="M70.08,0l-8.42,20.49h8.47l4.61-12.19,4.34,12.19h8.64L79.11,0h-9.04ZM42.96,0v5.95l6.13.08v14.46h8.82V5.95h6.13V0h-21.08ZM27.24,0l-8.34,20.49h8.47l4.6-12.19,4.3,12.19h8.64L36.32,0h-9.08ZM0,0v5.95l6.26.08v14.46h8.73V5.95h6.12V0H0Z" style="fill:#0073bb; fill-rule:evenodd;"/><path d="M61.65,31.31h1.66v6.54h3.98v1.43h-5.65v-7.97Z" style="fill:#4c4c4e; fill-rule:evenodd;"/><path d="M68.28,39.28h1.66v-7.97h-1.66v7.97Z" style="fill:#4c4c4e; fill-rule:evenodd;"/><path d="M71.5,31.32h5.68v1.4h-4.03v1.83h3.53v1.38h-3.53v3.34h-1.66v-7.96Z" style="fill:#4c4c4e; fill-rule:evenodd;"/><path d="M84.16,32.72h-4.22v1.69h3.87v1.38h-3.87v2.05h4.41v1.43h-6.04v-7.97h5.85v1.41Z" style="fill:#4c4c4e; fill-rule:evenodd;"/><path d="M88.59,39.28h1.66v-7.97h-1.66v7.97Z" style="fill:#4c4c4e; fill-rule:evenodd;"/><path d="M91.78,31.31h1.75l3.16,5.56v-5.56h1.55v7.97h-1.67l-3.25-5.66v5.66h-1.55v-7.97Z" style="fill:#4c4c4e; fill-rule:evenodd;"/><path d="M101,36.82c.05.36.15.64.3.82.28.33.75.49,1.42.49.4,0,.73-.04.98-.13.47-.17.71-.47.71-.92,0-.26-.12-.47-.35-.61-.23-.14-.6-.26-1.11-.37l-.86-.19c-.85-.19-1.43-.39-1.75-.61-.54-.37-.81-.94-.81-1.73,0-.71.26-1.31.79-1.78.53-.47,1.3-.71,2.32-.71.85,0,1.58.22,2.18.67.6.45.92,1.09.94,1.94h-1.6c-.03-.48-.24-.82-.64-1.02-.27-.13-.6-.2-.99-.2-.44,0-.79.09-1.05.26-.26.17-.39.42-.39.73,0,.29.13.5.39.64.17.09.52.2,1.06.33l1.4.33c.61.14,1.07.34,1.38.58.48.37.71.92.71,1.63s-.28,1.33-.85,1.81c-.56.48-1.36.72-2.39.72s-1.88-.24-2.48-.71c-.6-.47-.9-1.13-.9-1.96h1.59Z" style="fill:#4c4c4e; fill-rule:evenodd;"/><path d="M107.19,31.31h1.69v4.9c0,.55.06.95.19,1.2.2.45.64.67,1.32.67s1.11-.22,1.31-.67c.13-.25.19-.65.19-1.2v-4.9h1.69v4.9c0,.85-.13,1.51-.39,1.98-.49.87-1.42,1.3-2.8,1.3s-2.31-.43-2.81-1.3c-.26-.47-.39-1.13-.39-1.98v-4.9Z" style="fill:#4c4c4e; fill-rule:evenodd;"/><path d="M116.86,32.7v2.14h1.79c.36,0,.62-.04.8-.13.32-.15.47-.45.47-.9,0-.48-.15-.81-.46-.97-.17-.09-.43-.14-.77-.14h-1.84ZM120.3,31.52c.29.13.54.31.75.56.17.2.3.43.4.67.1.24.15.52.15.84,0,.38-.1.75-.29,1.12-.19.37-.51.63-.95.78.37.15.63.36.78.63.15.27.23.69.23,1.25v.54c0,.36.02.61.05.74.04.21.15.36.31.45v.2h-1.84c-.05-.18-.09-.32-.11-.43-.04-.22-.07-.45-.07-.69v-.74c-.02-.51-.11-.85-.27-1.02-.17-.17-.49-.25-.95-.25h-1.63v3.13h-1.63v-7.97h3.81c.55.01.96.08,1.26.21Z" style="fill:#4c4c4e; fill-rule:evenodd;"/><path d="M125.36,36.27h2.04l-1.01-3.14-1.03,3.14ZM125.47,31.31h1.88l2.82,7.97h-1.81l-.53-1.64h-2.94l-.54,1.64h-1.74l2.85-7.97Z" style="fill:#4c4c4e; fill-rule:evenodd;"/><path d="M131.16,31.31h1.75l3.16,5.56v-5.56h1.55v7.97h-1.66l-3.25-5.66v5.66h-1.55v-7.97Z" style="fill:#4c4c4e; fill-rule:evenodd;"/><path d="M139.95,32.14c.64-.66,1.46-.98,2.45-.98,1.33,0,2.3.44,2.91,1.32.34.49.52.99.55,1.49h-1.67c-.11-.38-.24-.67-.41-.87-.3-.35-.74-.52-1.32-.52s-1.06.24-1.4.73c-.34.49-.51,1.18-.51,2.07s.18,1.56.54,2.01c.36.45.82.67,1.38.67s1.01-.19,1.31-.57c.16-.21.3-.51.41-.92h1.65c-.14.87-.51,1.58-1.09,2.12-.59.55-1.34.82-2.26.82-1.13,0-2.03-.37-2.68-1.1-.65-.74-.97-1.75-.97-3.04,0-1.39.37-2.46,1.11-3.22Z" style="fill:#4c4c4e; fill-rule:evenodd;"/><path d="M153.08,32.72h-4.22v1.69h3.87v1.38h-3.87v2.05h4.41v1.43h-6.04v-7.97h5.85v1.41Z" style="fill:#4c4c4e; fill-rule:evenodd;"/><path d="M44.67,39.45h12.72v-4.15h-12.72v4.15Z" style="fill:#d62049; fill-rule:evenodd;"/><path d="M31.95,39.45h12.72v-4.15h-12.72v4.15Z" style="fill:#0073bb; fill-rule:evenodd;"/><path d="M44.33,39.71h.68v-4.67h-.68v4.67Z" style="fill:#fefefe; fill-rule:evenodd;"/></g></svg>