<?xml version="1.0" encoding="UTF-8"?><svg id="uuid-f6c6a20f-8297-42aa-8fe7-7b7a91099a7a" xmlns="http://www.w3.org/2000/svg" xmlns:xlink="http://www.w3.org/1999/xlink" viewBox="0 0 463.19 107.88">
<title>Techron logo - Brandlogos.net</title><defs><linearGradient id="uuid-ae3ecf4e-7582-46af-9610-d0b176599128" x1="-368.84" y1="456.37" x2="-362.37" y2="468.5" gradientTransform="translate(4131.19 2303.56) scale(10.69 -4.86)" gradientUnits="userSpaceOnUse"><stop offset="0" stop-color="#007ac2"/><stop offset=".15" stop-color="#007bc3"/><stop offset=".3" stop-color="#007fc5"/><stop offset=".45" stop-color="#0085c9"/><stop offset=".6" stop-color="#3190ce"/><stop offset=".75" stop-color="#609fd6"/><stop offset=".9" stop-color="#8cb5e0"/><stop offset="1" stop-color="#adc8e9"/></linearGradient></defs><g id="uuid-e723a24f-4213-483b-b206-43f7b0bd4ae3"><g id="uuid-e2f67492-d3a1-4296-a975-8fff6235426c"><g id="uuid-12f44115-c84f-48aa-8427-a60944ccff0c"><g id="uuid-0d9887f0-0ffe-4a26-a865-19bee53c98f7"><g id="uuid-00b38b96-3de3-475c-889a-ae29942b6aa1"><path id="uuid-bcf83a1c-5a41-4e37-8c54-8339f8a66294" d="M450.99,20.51c0-3.37,2.73-6.12,6.11-6.12s6.09,2.75,6.09,6.12-2.75,6.1-6.09,6.1-6.11-2.74-6.11-6.1ZM452.62,20.51c0,2.59,2.1,4.48,4.49,4.48s4.48-1.88,4.48-4.48-2.12-4.49-4.48-4.49-4.49,1.87-4.49,4.49ZM455.96,23.62h-1.4v-6.41h3.06c.54,0,1.25.02,1.71.29.59.36.76,1.07.76,1.73,0,1.17-.62,1.63-1.73,1.78l1.55,2.61h-1.61l-1.4-2.61h-.93v2.61ZM457.66,19.85c.7.01.96-.16.96-.8s-.67-.66-1.27-.66h-1.39v1.46h1.69Z" style="fill:#67737a;"/><polygon id="uuid-351634c7-df67-498a-b482-e258ea49ce94" points="105.94 44.53 105.96 44.51 77.15 44.51 77.15 28.06 111.3 28.06 111.3 14.4 60.54 14.4 60.54 88.31 111.33 88.31 111.45 74.65 77.15 74.65 77.15 57.75 93.89 57.69 105.94 44.53" style="fill:#67737a;"/><path id="uuid-226b5eef-ea6c-4b06-b624-f0184fd2ade8" d="M159.34,42.79c-.1-8.19-3.59-16.25-13.07-16.25-12.16,0-14.03,16.62-14.03,25.56,0,10.13,1.87,23.84,14.89,23.84,8.09,0,11.74-6.37,12.71-13.47l16.93.03c-1.84,16.92-13.47,26.87-30.49,26.87-21.97,0-32.64-17.88-32.64-38.03s10.99-38.03,33.18-38.03c18.53,0,28.02,11.73,29.95,29.51l-17.42-.03Z" style="fill:#67737a;"/><path id="uuid-3d29dae7-e14a-417d-ad56-74d5eef256dd" d="M276.18,59.12l-.04,29.19h-16.57V14.4h30.51c6.55,0,13.25.11,18.96,3.76,6.03,3.99,9.37,11.21,9.37,18.43,0,8.4-5.11,16.15-13.07,19.06l29.54,52.22h-13.66c-3.3,0-4.77-2.23-5.9-4.17-1.13-1.94-25.99-44.59-25.99-44.59h-13.16ZM287.08,47.05s6.9-.19,9.18-1.53c2.8-1.72,5.89-4.13,5.94-9.03.04-4.25-2.43-6.74-4.92-8.26-2.9-1.83-8.82-1.37-12.05-1.37h-9.09v19.52l.04,12.67,10.9-12.01Z" style="fill:#67737a;"/><path id="uuid-60c9613f-88cf-4515-ba5d-8a570aa35d68" d="M330.09,77.74c-5.38-7.64-7.74-17.23-7.74-26.5,0-19.61,9.8-37.92,31.66-37.92,9.81,0,17.57,3.24,23.5,11.32,5.27,7.22,7.96,17.66,7.96,26.61,0,8.4-2.26,18.64-6.99,25.65-5.72,8.39-14.45,12.48-24.47,12.48s-18.09-3.45-23.92-11.63ZM342.56,35.54c-1.76,4.51-3.03,10.99-3.03,15.72,0,9.44,2.06,25.14,14.47,25.14,6.05,0,9.34-3.6,11.32-9.2,1.76-4.62,2.93-10.89,2.93-15.83,0-5.5-1.18-11.98-3.38-17.04-2.2-5.04-5.38-7.99-10.87-7.99-6.05,0-9.33,3.71-11.44,9.21Z" style="fill:#67737a;"/><polygon id="uuid-68931777-0b85-46a5-881e-a5df3c5db93d" points="447.61 88.31 433.54 88.31 405.15 38.64 404.72 38.64 404.72 88.31 391.99 88.31 391.99 14.4 409.97 14.4 434.63 58.45 434.89 58.45 434.89 14.4 447.61 14.4 447.61 88.31" style="fill:#67737a;"/><rect id="uuid-16c26487-dc6e-4423-b137-51d8f8510e7d" x="186.13" y="14.4" width="16.56" height="73.91" style="fill:#67737a;"/><rect id="uuid-ebd559b3-940c-4a77-88ee-3463e9ce3926" x="231.21" y="14.4" width="16.55" height="73.91" style="fill:#67737a;"/><polygon id="uuid-1d854974-9314-4758-8d32-43818826a1c0" points="54.51 14.64 35.26 14.64 35.26 88.31 18.84 88.31 18.84 14.64 0 14.64 0 0 54.51 0 54.51 14.64 54.51 14.64" style="fill:#67737a;"/><path id="uuid-d2b6128b-0f60-43d9-96c2-c9a604f307f6" d="M270.46,44.82c-16.1-2.96-66.42-7.77-91.98,25.97l20.11,15.08s5.55-43.77,72.12-40.43l-.25-.62Z" style="fill:#67737a;"/><path id="uuid-bdf5c58c-7df4-44a4-b395-18bdfe6223ec" d="M269.64,43.45c-16.09-2.96-66.41-9.03-91.98,24.7l19.62,14.83s6.36-43.94,72.61-38.92l-.25-.61Z" style="fill:url(#uuid-ae3ecf4e-7582-46af-9610-d0b176599128);"/></g></g></g></g></g></svg>